<?xml version="1.0" encoding="utf-8"?>
<!-- Generator: Adobe Illustrator 21.1.0, SVG Export Plug-In . SVG Version: 6.00 Build 0)  -->
<svg version="1.1" id="Ebene_1" xmlns="http://www.w3.org/2000/svg" xmlns:xlink="http://www.w3.org/1999/xlink" x="0px" y="0px"
	 viewBox="0 0 363.5 212.7" style="enable-background:new 0 0 363.5 212.7;" xml:space="preserve">
<style type="text/css">
	.st0{opacity:0.2;enable-background:new    ;}
	.st1{fill:#25B252;}
	.st2{opacity:0.3;enable-background:new    ;}
	.st3{opacity:0.5;enable-background:new    ;}
	.st4{enable-background:new    ;}
</style>
<g class="st0">
	<path class="st1" d="M64.1,91c8.1-1.4,14-2.1,17.7-2.1l-2.6,12.7c-6.2-0.5-12-0.7-17.2-0.7c-2.1,0-4.2,0.1-6.5,0.2
		c-2.3,0.1-4.3,0.3-6,0.4c-1.7,0.1-3.7,0.3-5.8,0.4c-2.1,0.1-3.9,0.2-5.3,0.2c-4.6,0-8.7-0.6-12.5-1.9c-3.8-1.3-7-3.2-9.7-5.7
		c-2.7-2.5-4.8-5.7-6.3-9.4C8.2,81.3,7.4,76.9,7.4,72c0-3.9,0.4-7.8,1.2-11.9c0.8-4.1,2-8.1,3.7-12c1.6-3.9,3.7-7.6,6.2-11
		c2.5-3.4,5.4-6.4,8.8-9c3.4-2.6,7.2-4.6,11.4-6.1c4.2-1.5,8.9-2.3,14.1-2.3c4.7,0,8.9,0.6,12.7,1.9c3.8,1.3,7.1,3.2,9.7,5.8
		c2.7,2.6,4.7,5.7,6.2,9.5c1.4,3.8,2.2,8.2,2.2,13.1c0,4.1-0.5,8.2-1.4,12.2c-0.9,4-2.2,7.7-3.9,11.3c-1.7,3.6-3.8,6.8-6.2,9.7
		c-2.4,2.9-5.1,5.5-8.1,7.6L64.1,91z M51.2,32c-3.1,0-6,0.6-8.6,1.7c-2.7,1.1-5.1,2.6-7.2,4.6c-2.2,1.9-4.1,4.2-5.7,6.8
		c-1.6,2.6-3,5.3-4.2,8.3c-1.1,2.9-2,6-2.6,9.1c-0.6,3.1-0.9,6.2-0.9,9.3c0,6,1.5,10.6,4.6,13.7S34.2,90,39.9,90
		c3.1,0,6-0.6,8.7-1.7c2.6-1.1,5-2.6,7.2-4.6c2.2-1.9,4.1-4.2,5.7-6.8c1.6-2.6,3-5.3,4.2-8.3c1.1-2.9,2-6,2.6-9.1
		c0.6-3.2,0.9-6.2,0.9-9.3c0-6-1.5-10.6-4.6-13.7S56.9,32,51.2,32z"/>
</g>
<g class="st2">
	<path class="st1" d="M84.1,91c8.1-1.4,14-2.1,17.7-2.1l-2.6,12.7c-6.2-0.5-12-0.7-17.2-0.7c-2.1,0-4.2,0.1-6.5,0.2
		c-2.3,0.1-4.3,0.3-6,0.4c-1.7,0.1-3.7,0.3-5.8,0.4c-2.1,0.1-3.9,0.2-5.3,0.2c-4.6,0-8.7-0.6-12.5-1.9c-3.8-1.3-7-3.2-9.7-5.7
		c-2.7-2.5-4.8-5.7-6.3-9.4c-1.5-3.8-2.2-8.1-2.2-13.1c0-3.9,0.4-7.8,1.2-11.9c0.8-4.1,2-8.1,3.7-12c1.6-3.9,3.7-7.6,6.2-11
		c2.5-3.4,5.4-6.4,8.8-9c3.4-2.6,7.2-4.6,11.4-6.1c4.2-1.5,8.9-2.3,14.1-2.3c4.7,0,8.9,0.6,12.7,1.9c3.8,1.3,7.1,3.2,9.7,5.8
		c2.7,2.6,4.7,5.7,6.2,9.5c1.4,3.8,2.2,8.2,2.2,13.1c0,4.1-0.5,8.2-1.4,12.2c-0.9,4-2.2,7.7-3.9,11.3c-1.7,3.6-3.8,6.8-6.2,9.7
		c-2.4,2.9-5.1,5.5-8.1,7.6L84.1,91z M71.2,32c-3.1,0-6,0.6-8.6,1.7c-2.7,1.1-5.1,2.6-7.2,4.6c-2.2,1.9-4.1,4.2-5.7,6.8
		c-1.6,2.6-3,5.3-4.2,8.3c-1.1,2.9-2,6-2.6,9.1c-0.6,3.1-0.9,6.2-0.9,9.3c0,6,1.5,10.6,4.6,13.7S54.2,90,59.9,90
		c3.1,0,6-0.6,8.7-1.7c2.6-1.1,5-2.6,7.2-4.6c2.2-1.9,4.1-4.2,5.7-6.8c1.6-2.6,3-5.3,4.2-8.3c1.1-2.9,2-6,2.6-9.1
		c0.6-3.2,0.9-6.2,0.9-9.3c0-6-1.5-10.6-4.6-13.7S76.9,32,71.2,32z"/>
</g>
<g class="st3">
	<path class="st1" d="M104.1,91c8.1-1.4,14-2.1,17.7-2.1l-2.6,12.7c-6.2-0.5-12-0.7-17.2-0.7c-2.1,0-4.2,0.1-6.5,0.2
		c-2.3,0.1-4.3,0.3-6,0.4c-1.7,0.1-3.7,0.3-5.8,0.4c-2.1,0.1-3.9,0.2-5.3,0.2c-4.6,0-8.7-0.6-12.5-1.9c-3.8-1.3-7-3.2-9.7-5.7
		c-2.7-2.5-4.8-5.7-6.3-9.4c-1.5-3.8-2.2-8.1-2.2-13.1c0-3.9,0.4-7.8,1.2-11.9c0.8-4.1,2-8.1,3.7-12c1.6-3.9,3.7-7.6,6.2-11
		c2.5-3.4,5.4-6.4,8.8-9c3.4-2.6,7.2-4.6,11.4-6.1c4.2-1.5,8.9-2.3,14.1-2.3c4.7,0,8.9,0.6,12.7,1.9c3.8,1.3,7.1,3.2,9.7,5.8
		c2.7,2.6,4.7,5.7,6.2,9.5c1.4,3.8,2.2,8.2,2.2,13.1c0,4.1-0.5,8.2-1.4,12.2c-0.9,4-2.2,7.7-3.9,11.3c-1.7,3.6-3.8,6.8-6.2,9.7
		c-2.4,2.9-5.1,5.5-8.1,7.6L104.1,91z M91.2,32c-3.1,0-6,0.6-8.6,1.7c-2.7,1.1-5.1,2.6-7.2,4.6c-2.2,1.9-4.1,4.2-5.7,6.8
		c-1.6,2.6-3,5.3-4.2,8.3c-1.1,2.9-2,6-2.6,9.1c-0.6,3.1-0.9,6.2-0.9,9.3c0,6,1.5,10.6,4.6,13.7S74.2,90,79.9,90
		c3.1,0,6-0.6,8.7-1.7c2.6-1.1,5-2.6,7.2-4.6c2.2-1.9,4.1-4.2,5.7-6.8c1.6-2.6,3-5.3,4.2-8.3c1.1-2.9,2-6,2.6-9.1
		c0.6-3.2,0.9-6.2,0.9-9.3c0-6-1.5-10.6-4.6-13.7S96.9,32,91.2,32z"/>
</g>
<g class="st4">
	<path class="st1" d="M123.1,91c8.1-1.4,14-2.1,17.7-2.1l-2.6,12.7c-6.2-0.5-12-0.7-17.2-0.7c-2.1,0-4.2,0.1-6.5,0.2
		c-2.3,0.1-4.3,0.3-6,0.4c-1.7,0.1-3.7,0.3-5.8,0.4c-2.1,0.1-3.9,0.2-5.3,0.2c-4.6,0-8.7-0.6-12.5-1.9c-3.8-1.3-7-3.2-9.7-5.7
		c-2.7-2.5-4.8-5.7-6.3-9.4c-1.5-3.8-2.2-8.1-2.2-13.1c0-3.9,0.4-7.8,1.2-11.9c0.8-4.1,2-8.1,3.7-12c1.6-3.9,3.7-7.6,6.2-11
		c2.5-3.4,5.4-6.4,8.8-9c3.4-2.6,7.2-4.6,11.4-6.1c4.2-1.5,8.9-2.3,14.1-2.3c4.7,0,8.9,0.6,12.7,1.9c3.8,1.3,7.1,3.2,9.7,5.8
		c2.7,2.6,4.7,5.7,6.2,9.5c1.4,3.8,2.2,8.2,2.2,13.1c0,4.1-0.5,8.2-1.4,12.2c-0.9,4-2.2,7.7-3.9,11.3c-1.7,3.6-3.8,6.8-6.2,9.7
		c-2.4,2.9-5.1,5.5-8.1,7.6L123.1,91z M110.2,32c-3.1,0-6,0.6-8.6,1.7c-2.7,1.1-5.1,2.6-7.2,4.6c-2.2,1.9-4.1,4.2-5.7,6.8
		c-1.6,2.6-3,5.3-4.2,8.3c-1.1,2.9-2,6-2.6,9.1c-0.6,3.1-0.9,6.2-0.9,9.3c0,6,1.5,10.6,4.6,13.7S93.2,90,98.9,90
		c3.1,0,6-0.6,8.7-1.7c2.6-1.1,5-2.6,7.2-4.6c2.2-1.9,4.1-4.2,5.7-6.8c1.6-2.6,3-5.3,4.2-8.3c1.1-2.9,2-6,2.6-9.1
		c0.6-3.2,0.9-6.2,0.9-9.3c0-6-1.5-10.6-4.6-13.7S115.9,32,110.2,32z"/>
	<path class="st1" d="M162.5,102.3c-3.8,0-7.1-0.4-9.8-1.3c-2.7-0.9-5-2.1-6.7-3.6c-1.7-1.5-3-3.4-3.8-5.6c-0.8-2.2-1.2-4.5-1.2-7.1
		c0-0.8,0.1-1.8,0.2-2.9c0.1-1.1,0.4-2.4,0.7-4.1l7.1-34.7H163l-7.3,35.1c-0.2,1-0.3,1.8-0.4,2.7c-0.1,0.8-0.1,1.6-0.1,2.2
		c0,2.4,0.7,4.3,2,5.6c1.3,1.4,3.4,2,6.4,2c2.1,0,3.8-0.3,5.3-0.9c1.5-0.6,2.7-1.4,3.8-2.5c1-1.1,1.9-2.4,2.5-4
		c0.7-1.6,1.2-3.3,1.6-5.3l7.3-35h14.1L190,82c-0.6,2.6-1.4,5.2-2.6,7.6c-1.2,2.4-2.8,4.6-5,6.5c-2.1,1.9-4.8,3.4-8.1,4.5
		C171.1,101.8,167.1,102.3,162.5,102.3z"/>
	<path class="st1" d="M190.7,100.9l12-57.7h14.1l-12,57.7H190.7z M205.1,29.9l3.1-15.3H223l-3.1,15.3H205.1z"/>
	<path class="st1" d="M258.7,56c-2.1-1-4.3-1.6-6.4-2.1c-2.1-0.4-4-0.7-5.7-0.7c-2.6,0-5,0.4-7,1.3c-2,0.9-3.8,2-5.4,3.4
		c-1.5,1.4-2.8,3-3.9,4.8c-1.1,1.8-1.9,3.7-2.6,5.6s-1.1,3.8-1.4,5.6c-0.3,1.8-0.4,3.5-0.4,5c0,2.3,0.3,4.2,0.8,5.7
		c0.6,1.5,1.3,2.7,2.3,3.6c1,0.9,2.2,1.5,3.5,1.9c1.4,0.4,2.8,0.6,4.4,0.6c2.7,0,5.4-0.4,8.3-1.1c2.9-0.7,5.8-1.8,8.7-3.1L251.5,99
		c-2,0.8-4.5,1.6-7.5,2.3c-3,0.7-6.2,1-9.5,1c-2.9,0-5.8-0.4-8.5-1.3s-5.2-2.2-7.3-4c-2.1-1.8-3.8-4.1-5.1-7
		c-1.3-2.9-1.9-6.3-1.9-10.4c0-2.7,0.3-5.5,0.8-8.4c0.5-2.9,1.4-5.8,2.5-8.6c1.2-2.8,2.6-5.5,4.4-8c1.8-2.6,4-4.8,6.5-6.7
		c2.5-1.9,5.4-3.5,8.7-4.6c3.3-1.1,7-1.7,11-1.7c2.3,0,4.9,0.3,7.8,0.9c3,0.6,5.5,1.3,7.6,2.2L258.7,56z"/>
	<path class="st1" d="M266.3,100.9h-14.1l17.9-86.3h14.1l-8.8,42.4c-0.3,1.5-0.7,3.1-1,4.7c-0.4,1.6-0.7,3.1-1.1,4.5h0.4l21.7-23
		h17.2L286,70.7v0.2c0.6,0.8,1.1,1.8,1.4,3.2s0.7,2.7,1.1,4.2c0.4,1.5,0.8,2.9,1.3,4.4c0.5,1.5,1.1,2.8,1.9,4c0.8,1.2,1.8,2.2,3,2.9
		c1.2,0.8,2.7,1.1,4.5,1.1c1,0,2.2-0.2,3.6-0.5l-2.4,11.6c-1.6,0.2-3.1,0.4-4.5,0.4c-3.5,0-6.3-0.6-8.5-1.8
		c-2.2-1.2-4.1-2.7-5.5-4.5c-1.5-1.8-2.6-3.9-3.4-6.1c-0.8-2.2-1.5-4.4-2.1-6.6c-0.6-2.1-1.2-4.1-1.8-5.8c-0.6-1.7-1.3-3.1-2.3-3.9
		H272L266.3,100.9z"/>
</g>
<g class="st4">
	<path class="st1" d="M198.4,183.5l-16.4-35.3c-4-8.6-7.2-16.2-9.6-22.9h-0.4c-0.8,6.6-2,14.2-3.8,22.7l-7.4,35.6h-14.5l16.5-79.7
		H177l16.4,35.3c4,8.5,7.2,16.2,9.6,22.9h0.4c0.5-5.2,1.8-12.8,3.8-22.7l7.4-35.6h14.5l-16.5,79.7H198.4z"/>
	<path class="st1" d="M253.8,124.3c3.4,0,6.5,0.5,9.3,1.4c2.8,0.9,5.1,2.3,7.1,4.1s3.5,4.1,4.6,6.9c1.1,2.8,1.6,6,1.6,9.6
		c0,5.1-0.7,10-2.1,14.6c-1.4,4.7-3.4,8.8-6.2,12.4c-2.7,3.6-6.1,6.4-10.2,8.5c-4.1,2.1-8.7,3.2-14.1,3.2c-3.4,0-6.5-0.5-9.2-1.4
		c-2.8-0.9-5.2-2.3-7.1-4.1c-2-1.8-3.5-4.1-4.6-6.8s-1.6-6-1.6-9.7c0-5.1,0.7-10,2.1-14.6c1.4-4.7,3.4-8.8,6.2-12.4
		c2.7-3.6,6.1-6.4,10.2-8.5S248.5,124.3,253.8,124.3z M252.6,135.9c-1.9,0-3.7,0.4-5.2,1.1c-1.6,0.8-3,1.8-4.3,3.1
		c-1.3,1.3-2.4,2.9-3.3,4.6c-0.9,1.7-1.7,3.6-2.4,5.6c-0.6,2-1.1,4.1-1.4,6.2c-0.3,2.1-0.5,4.2-0.5,6.2c0,3.3,0.8,5.9,2.3,7.8
		c1.5,1.9,3.9,2.9,7.2,2.9c1.9,0,3.7-0.4,5.2-1.1c1.6-0.8,3-1.8,4.3-3.1c1.3-1.3,2.4-2.9,3.3-4.6s1.7-3.6,2.4-5.6
		c0.6-2,1.1-4.1,1.4-6.2c0.3-2.1,0.5-4.2,0.5-6.2c0-3.3-0.8-5.8-2.3-7.7S255.9,135.9,252.6,135.9z"/>
	<path class="st1" d="M313.3,137.4h-15l-5.7,27.8c-0.2,0.9-0.3,1.6-0.4,2.3c-0.1,0.7-0.1,1.2-0.1,1.7c0,1.5,0.4,2.5,1.2,3.1
		c0.8,0.6,2.2,0.9,4.2,0.9c1.3,0,3.1-0.1,5.2-0.4c2.1-0.3,4-0.6,5.7-1l-2.3,11.7c-1.9,0.5-4,0.9-6.2,1.2c-2.2,0.3-4.4,0.4-6.3,0.4
		c-2.7,0-5.1-0.3-7.1-0.9c-2-0.6-3.6-1.4-4.9-2.5c-1.3-1.1-2.2-2.4-2.9-3.9c-0.6-1.5-0.9-3.3-0.9-5.2c0-0.7,0-1.5,0.1-2.4
		c0.1-0.9,0.3-2.1,0.5-3.4l6.1-29.3h-10.8l2.4-11.6h10.7l3.4-16.1H304l-3.3,16.1h15L313.3,137.4z"/>
	<path class="st1" d="M359.9,140.1c0,3.2-0.8,6.1-2.4,8.7c-1.6,2.6-3.9,4.7-6.9,6.6c-3.1,1.8-6.8,3.2-11.3,4.1
		c-4.5,1-9.7,1.4-15.5,1.4c-0.7,0-1.5,0-2.6-0.1v0.4c0,2.1,0.3,3.9,0.9,5.5c0.6,1.6,1.5,2.8,2.7,3.8c1.2,1,2.6,1.7,4.3,2.2
		c1.7,0.5,3.5,0.7,5.6,0.7c3.1,0,6.4-0.4,9.8-1.1c3.4-0.8,6.4-1.8,8.9-3l-2.6,12.4c-2.5,1-5.3,1.8-8.4,2.4
		c-3.2,0.6-6.5,0.9-10.1,0.9c-4.3,0-7.9-0.6-11.1-1.7c-3.1-1.2-5.7-2.8-7.8-4.9c-2-2.1-3.6-4.6-4.6-7.4c-1-2.9-1.5-6-1.5-9.5
		c0-3.1,0.3-6.1,1-9.1c0.6-3,1.6-5.9,2.8-8.7c1.2-2.8,2.8-5.3,4.6-7.7c1.8-2.4,3.9-4.4,6.3-6.1c2.4-1.7,5.1-3.1,8.1-4.1
		s6.2-1.5,9.7-1.5c3.1,0,5.8,0.4,8.3,1.1c2.5,0.8,4.6,1.8,6.3,3.2c1.7,1.4,3.1,3,4,5C359.4,135.6,359.9,137.8,359.9,140.1z
		 M345.7,140.1c0-1.3-0.5-2.4-1.5-3.4c-1-1-2.6-1.4-4.7-1.4c-1.6,0-3.2,0.3-4.9,1c-1.6,0.6-3.2,1.6-4.6,2.8
		c-1.5,1.3-2.8,2.8-3.9,4.6c-1.2,1.8-2.1,3.9-2.7,6.2c4.2,0,7.7-0.3,10.6-0.8s5.2-1.3,6.9-2.2c1.7-0.9,3-2,3.8-3.1
		C345.3,142.6,345.7,141.4,345.7,140.1z"/>
</g>
</svg>
